solid OpenSCAD_Model
  facet normal -0.97003 -0.242986 0
    outer loop
      vertex -29.6139 -22.3306 0
      vertex -29.6616 -22.1402 8
      vertex -29.6616 -22.1402 0
    endloop
  endfacet
  facet normal -0.97003 -0.242986 0
    outer loop
      vertex -29.6616 -22.1402 8
      vertex -29.6139 -22.3306 0
      vertex -29.6139 -22.3306 8
    endloop
  endfacet
  facet normal -0.941545 -0.336887 0
    outer loop
      vertex -29.5478 -22.5154 0
      vertex -29.6139 -22.3306 8
      vertex -29.6139 -22.3306 0
    endloop
  endfacet
  facet normal -0.941545 -0.336887 0
    outer loop
      vertex -29.6139 -22.3306 8
      vertex -29.5478 -22.5154 0
      vertex -29.5478 -22.5154 8
    endloop
  endfacet
  facet normal 0.97003 0.242986 0
    outer loop
      vertex 29.6616 22.1402 8
      vertex 29.6139 22.3306 0
      vertex 29.6139 22.3306 8
    endloop
  endfacet
  facet normal 0.97003 0.242986 0
    outer loop
      vertex 29.6139 22.3306 0
      vertex 29.6616 22.1402 8
      vertex 29.6616 22.1402 0
    endloop
  endfacet
  facet normal 0 0 -1
    outer loop
      vertex 27.7 -23.75 0
      vertex 29.7 -21.75 0
      vertex 29.6904 -21.946 0
    endloop
  endfacet
  facet normal -0 0 -1
    outer loop
      vertex 29.7 -21.75 0
      vertex 27.7 -23.75 0
      vertex 29.7 21.75 0
    endloop
  endfacet
  facet normal 0 0 -1
    outer loop
      vertex 27.7 -23.75 0
      vertex 29.6904 -21.946 0
      vertex 29.6616 -22.1402 0
    endloop
  endfacet
  facet normal 0 0 -1
    outer loop
      vertex 27.7 23.75 0
      vertex 29.7 21.75 0
      vertex 27.7 -23.75 0
    endloop
  endfacet
  facet normal 0 0 -1
    outer loop
      vertex 27.7 -23.75 0
      vertex 29.6616 -22.1402 0
      vertex 29.6139 -22.3306 0
    endloop
  endfacet
  facet normal 0 0 -1
    outer loop
      vertex 29.7 21.75 0
      vertex 27.7 23.75 0
      vertex 29.6904 21.946 0
    endloop
  endfacet
  facet normal 0 0 -1
    outer loop
      vertex 27.7 -23.75 0
      vertex 29.6139 -22.3306 0
      vertex 29.5478 -22.5154 0
    endloop
  endfacet
  facet normal 0 0 -1
    outer loop
      vertex 29.6904 21.946 0
      vertex 27.7 23.75 0
      vertex 29.6616 22.1402 0
    endloop
  endfacet
  facet normal 0 0 -1
    outer loop
      vertex 27.7 -23.75 0
      vertex 29.5478 -22.5154 0
      vertex 29.4638 -22.6928 0
    endloop
  endfacet
  facet normal 0 0 -1
    outer loop
      vertex 29.6616 22.1402 0
      vertex 27.7 23.75 0
      vertex 29.6139 22.3306 0
    endloop
  endfacet
  facet normal 0 0 -1
    outer loop
      vertex 27.7 -23.75 0
      vertex 29.4638 -22.6928 0
      vertex 29.3629 -22.8611 0
    endloop
  endfacet
  facet normal 0 0 -1
    outer loop
      vertex 29.6139 22.3306 0
      vertex 27.7 23.75 0
      vertex 29.5478 22.5154 0
    endloop
  endfacet
  facet normal 0 0 -1
    outer loop
      vertex 27.7 -23.75 0
      vertex 29.3629 -22.8611 0
      vertex 29.246 -23.0188 0
    endloop
  endfacet
  facet normal 0 0 -1
    outer loop
      vertex 29.5478 22.5154 0
      vertex 27.7 23.75 0
      vertex 29.4638 22.6928 0
    endloop
  endfacet
  facet normal 0 0 -1
    outer loop
      vertex 27.7 -23.75 0
      vertex 29.246 -23.0188 0
      vertex 29.1142 -23.1642 0
    endloop
  endfacet
  facet normal 0 0 -1
    outer loop
      vertex 29.4638 22.6928 0
      vertex 27.7 23.75 0
      vertex 29.3629 22.8611 0
    endloop
  endfacet
  facet normal 0 0 -1
    outer loop
      vertex 27.7 -23.75 0
      vertex 29.1142 -23.1642 0
      vertex 28.9688 -23.296 0
    endloop
  endfacet
  facet normal 0 0 -1
    outer loop
      vertex 29.3629 22.8611 0
      vertex 27.7 23.75 0
      vertex 29.246 23.0188 0
    endloop
  endfacet
  facet normal 0 0 -1
    outer loop
      vertex 27.7 -23.75 0
      vertex 28.9688 -23.296 0
      vertex 28.8111 -23.4129 0
    endloop
  endfacet
  facet normal 0 0 -1
    outer loop
      vertex 29.246 23.0188 0
      vertex 27.7 23.75 0
      vertex 29.1142 23.1642 0
    endloop
  endfacet
  facet normal 0 0 -1
    outer loop
      vertex 27.7 -23.75 0
      vertex 28.8111 -23.4129 0
      vertex 28.6428 -23.5138 0
    endloop
  endfacet
  facet normal 0 0 -1
    outer loop
      vertex 29.1142 23.1642 0
      vertex 27.7 23.75 0
      vertex 28.9688 23.296 0
    endloop
  endfacet
  facet normal 0 0 -1
    outer loop
      vertex 27.7 -23.75 0
      vertex 28.6428 -23.5138 0
      vertex 28.4654 -23.5978 0
    endloop
  endfacet
  facet normal 0 0 -1
    outer loop
      vertex 28.9688 23.296 0
      vertex 27.7 23.75 0
      vertex 28.8111 23.4129 0
    endloop
  endfacet
  facet normal 0 0 -1
    outer loop
      vertex 27.7 -23.75 0
      vertex 28.4654 -23.5978 0
      vertex 28.2806 -23.6639 0
    endloop
  endfacet
  facet normal 0 0 -1
    outer loop
      vertex 28.8111 23.4129 0
      vertex 27.7 23.75 0
      vertex 28.6428 23.5138 0
    endloop
  endfacet
  facet normal 0 0 -1
    outer loop
      vertex 27.7 -23.75 0
      vertex 28.2806 -23.6639 0
      vertex 28.0902 -23.7116 0
    endloop
  endfacet
  facet normal 0 0 -1
    outer loop
      vertex 28.6428 23.5138 0
      vertex 27.7 23.75 0
      vertex 28.4654 23.5978 0
    endloop
  endfacet
  facet normal 0 0 -1
    outer loop
      vertex 27.7 -23.75 0
      vertex 28.0902 -23.7116 0
      vertex 27.896 -23.7404 0
    endloop
  endfacet
  facet normal 0 0 -1
    outer loop
      vertex 28.4654 23.5978 0
      vertex 27.7 23.75 0
      vertex 28.2806 23.6639 0
    endloop
  endfacet
  facet normal 0 0 -1
    outer loop
      vertex 28.2806 23.6639 0
      vertex 27.7 23.75 0
      vertex 28.0902 23.7116 0
    endloop
  endfacet
  facet normal 0 0 -1
    outer loop
      vertex 28.0902 23.7116 0
      vertex 27.7 23.75 0
      vertex 27.896 23.7404 0
    endloop
  endfacet
  facet normal 0 0 -1
    outer loop
      vertex -27.7 -23.75 0
      vertex 27.7 23.75 0
      vertex 27.7 -23.75 0
    endloop
  endfacet
  facet normal 0 0 -1
    outer loop
      vertex -27.7 -23.75 0
      vertex -27.7 23.75 0
      vertex 27.7 23.75 0
    endloop
  endfacet
  facet normal 0 0 -1
    outer loop
      vertex -29.7 -21.75 0
      vertex -27.7 -23.75 0
      vertex -27.896 -23.7404 0
    endloop
  endfacet
  facet normal 0 0 -1
    outer loop
      vertex -27.7 -23.75 0
      vertex -29.7 -21.75 0
      vertex -27.7 23.75 0
    endloop
  endfacet
  facet normal 0 0 -1
    outer loop
      vertex -29.7 -21.75 0
      vertex -27.896 -23.7404 0
      vertex -28.0902 -23.7116 0
    endloop
  endfacet
  facet normal 0 0 -1
    outer loop
      vertex -29.7 21.75 0
      vertex -27.7 23.75 0
      vertex -29.7 -21.75 0
    endloop
  endfacet
  facet normal 0 0 -1
    outer loop
      vertex -29.7 -21.75 0
      vertex -28.0902 -23.7116 0
      vertex -28.2806 -23.6639 0
    endloop
  endfacet
  facet normal 0 0 -1
    outer loop
      vertex -27.7 23.75 0
      vertex -29.7 21.75 0
      vertex -27.896 23.7404 0
    endloop
  endfacet
  facet normal 0 0 -1
    outer loop
      vertex -29.7 -21.75 0
      vertex -28.2806 -23.6639 0
      vertex -28.4654 -23.5978 0
    endloop
  endfacet
  facet normal 0 0 -1
    outer loop
      vertex -27.896 23.7404 0
      vertex -29.7 21.75 0
      vertex -28.0902 23.7116 0
    endloop
  endfacet
  facet normal 0 0 -1
    outer loop
      vertex -29.7 -21.75 0
      vertex -28.4654 -23.5978 0
      vertex -28.6428 -23.5138 0
    endloop
  endfacet
  facet normal 0 0 -1
    outer loop
      vertex -28.0902 23.7116 0
      vertex -29.7 21.75 0
      vertex -28.2806 23.6639 0
    endloop
  endfacet
  facet normal 0 0 -1
    outer loop
      vertex -29.7 -21.75 0
      vertex -28.6428 -23.5138 0
      vertex -28.8111 -23.4129 0
    endloop
  endfacet
  facet normal 0 0 -1
    outer loop
      vertex -28.2806 23.6639 0
      vertex -29.7 21.75 0
      vertex -28.4654 23.5978 0
    endloop
  endfacet
  facet normal 0 0 -1
    outer loop
      vertex -29.7 -21.75 0
      vertex -28.8111 -23.4129 0
      vertex -28.9688 -23.296 0
    endloop
  endfacet
  facet normal 0 0 -1
    outer loop
      vertex -28.4654 23.5978 0
      vertex -29.7 21.75 0
      vertex -28.6428 23.5138 0
    endloop
  endfacet
  facet normal 0 0 -1
    outer loop
      vertex -29.7 -21.75 0
      vertex -28.9688 -23.296 0
      vertex -29.1142 -23.1642 0
    endloop
  endfacet
  facet normal 0 0 -1
    outer loop
      vertex -28.6428 23.5138 0
      vertex -29.7 21.75 0
      vertex -28.8111 23.4129 0
    endloop
  endfacet
  facet normal 0 0 -1
    outer loop
      vertex -29.7 -21.75 0
      vertex -29.1142 -23.1642 0
      vertex -29.246 -23.0188 0
    endloop
  endfacet
  facet normal 0 0 -1
    outer loop
      vertex -28.8111 23.4129 0
      vertex -29.7 21.75 0
      vertex -28.9688 23.296 0
    endloop
  endfacet
  facet normal 0 0 -1
    outer loop
      vertex -29.7 -21.75 0
      vertex -29.246 -23.0188 0
      vertex -29.3629 -22.8611 0
    endloop
  endfacet
  facet normal 0 0 -1
    outer loop
      vertex -28.9688 23.296 0
      vertex -29.7 21.75 0
      vertex -29.1142 23.1642 0
    endloop
  endfacet
  facet normal 0 0 -1
    outer loop
      vertex -29.7 -21.75 0
      vertex -29.3629 -22.8611 0
      vertex -29.4638 -22.6928 0
    endloop
  endfacet
  facet normal 0 0 -1
    outer loop
      vertex -29.1142 23.1642 0
      vertex -29.7 21.75 0
      vertex -29.246 23.0188 0
    endloop
  endfacet
  facet normal 0 0 -1
    outer loop
      vertex -29.7 -21.75 0
      vertex -29.4638 -22.6928 0
      vertex -29.5478 -22.5154 0
    endloop
  endfacet
  facet normal 0 0 -1
    outer loop
      vertex -29.246 23.0188 0
      vertex -29.7 21.75 0
      vertex -29.3629 22.8611 0
    endloop
  endfacet
  facet normal 0 0 -1
    outer loop
      vertex -29.7 -21.75 0
      vertex -29.5478 -22.5154 0
      vertex -29.6139 -22.3306 0
    endloop
  endfacet
  facet normal 0 0 -1
    outer loop
      vertex -29.3629 22.8611 0
      vertex -29.7 21.75 0
      vertex -29.4638 22.6928 0
    endloop
  endfacet
  facet normal 0 0 -1
    outer loop
      vertex -29.7 -21.75 0
      vertex -29.6139 -22.3306 0
      vertex -29.6616 -22.1402 0
    endloop
  endfacet
  facet normal 0 0 -1
    outer loop
      vertex -29.4638 22.6928 0
      vertex -29.7 21.75 0
      vertex -29.5478 22.5154 0
    endloop
  endfacet
  facet normal 0 0 -1
    outer loop
      vertex -29.7 -21.75 0
      vertex -29.6616 -22.1402 0
      vertex -29.6904 -21.946 0
    endloop
  endfacet
  facet normal 0 0 -1
    outer loop
      vertex -29.5478 22.5154 0
      vertex -29.7 21.75 0
      vertex -29.6139 22.3306 0
    endloop
  endfacet
  facet normal 0 0 -1
    outer loop
      vertex -29.6139 22.3306 0
      vertex -29.7 21.75 0
      vertex -29.6616 22.1402 0
    endloop
  endfacet
  facet normal 0 0 -1
    outer loop
      vertex -29.6616 22.1402 0
      vertex -29.7 21.75 0
      vertex -29.6904 21.946 0
    endloop
  endfacet
  facet normal -1 0 0
    outer loop
      vertex -29.7 -21.75 0
      vertex -29.7 21.75 8
      vertex -29.7 21.75 0
    endloop
  endfacet
  facet normal -1 -0 0
    outer loop
      vertex -29.7 21.75 8
      vertex -29.7 -21.75 0
      vertex -29.7 -21.75 8
    endloop
  endfacet
  facet normal 0.998795 -0.0490758 0
    outer loop
      vertex 29.6904 -21.946 8
      vertex 29.7 -21.75 0
      vertex 29.7 -21.75 8
    endloop
  endfacet
  facet normal 0.998795 -0.0490758 0
    outer loop
      vertex 29.7 -21.75 0
      vertex 29.6904 -21.946 8
      vertex 29.6904 -21.946 0
    endloop
  endfacet
  facet normal 0.671562 0.740948 -0
    outer loop
      vertex 29.1142 23.1642 0
      vertex 28.9688 23.296 8
      vertex 29.1142 23.1642 8
    endloop
  endfacet
  facet normal 0.671562 0.740948 0
    outer loop
      vertex 28.9688 23.296 8
      vertex 29.1142 23.1642 0
      vertex 28.9688 23.296 0
    endloop
  endfacet
  facet normal -0.998795 -0.0490758 0
    outer loop
      vertex -29.6904 -21.946 0
      vertex -29.7 -21.75 8
      vertex -29.7 -21.75 0
    endloop
  endfacet
  facet normal -0.998795 -0.0490758 0
    outer loop
      vertex -29.7 -21.75 8
      vertex -29.6904 -21.946 0
      vertex -29.6904 -21.946 8
    endloop
  endfacet
  facet normal -0.5957 0.803207 0
    outer loop
      vertex -28.8111 23.4129 0
      vertex -28.9688 23.296 8
      vertex -28.8111 23.4129 8
    endloop
  endfacet
  facet normal -0.5957 0.803207 0
    outer loop
      vertex -28.9688 23.296 8
      vertex -28.8111 23.4129 0
      vertex -28.9688 23.296 0
    endloop
  endfacet
  facet normal -0.998795 0.0490758 0
    outer loop
      vertex -29.7 21.75 0
      vertex -29.6904 21.946 8
      vertex -29.6904 21.946 0
    endloop
  endfacet
  facet normal -0.998795 0.0490758 0
    outer loop
      vertex -29.6904 21.946 8
      vertex -29.7 21.75 0
      vertex -29.7 21.75 8
    endloop
  endfacet
  facet normal 1 -0 0
    outer loop
      vertex 29.7 -21.75 8
      vertex 29.7 21.75 0
      vertex 29.7 21.75 8
    endloop
  endfacet
  facet normal 1 0 0
    outer loop
      vertex 29.7 21.75 0
      vertex 29.7 -21.75 8
      vertex 29.7 -21.75 0
    endloop
  endfacet
  facet normal -0 0 1
    outer loop
      vertex 17 -8 8
      vertex 28 -18.6 8
      vertex 28 -8 8
    endloop
  endfacet
  facet normal 0 0 1
    outer loop
      vertex 17 11 8
      vertex 15.05 -10.25 8
      vertex 17 -8 8
    endloop
  endfacet
  facet normal -0 0 1
    outer loop
      vertex 15.05 -10.25 8
      vertex 28 -18.6 8
      vertex 17 -8 8
    endloop
  endfacet
  facet normal 0 0 1
    outer loop
      vertex -8 -18.6 8
      vertex 15.05 -10.25 8
      vertex -7.35 -10.25 8
    endloop
  endfacet
  facet normal 0 0 1
    outer loop
      vertex 15.05 -10.25 8
      vertex -8 -18.6 8
      vertex 28 -18.6 8
    endloop
  endfacet
  facet normal 0 0 1
    outer loop
      vertex 27.7 23.75 8
      vertex 29.7 21.75 8
      vertex 29.6904 21.946 8
    endloop
  endfacet
  facet normal 0 0 1
    outer loop
      vertex 29.7 21.75 8
      vertex 28 -8 8
      vertex 29.7 -21.75 8
    endloop
  endfacet
  facet normal 0 0 1
    outer loop
      vertex 27.7 23.75 8
      vertex 29.6904 21.946 8
      vertex 29.6616 22.1402 8
    endloop
  endfacet
  facet normal -0 0 1
    outer loop
      vertex 28 -18.6 8
      vertex 29.7 -21.75 8
      vertex 28 -8 8
    endloop
  endfacet
  facet normal 0 0 1
    outer loop
      vertex 27.7 23.75 8
      vertex 29.6616 22.1402 8
      vertex 29.6139 22.3306 8
    endloop
  endfacet
  facet normal -0 0 1
    outer loop
      vertex 28 -20 8
      vertex 29.7 -21.75 8
      vertex 28 -18.6 8
    endloop
  endfacet
  facet normal 0 0 1
    outer loop
      vertex 27.7 23.75 8
      vertex 29.6139 22.3306 8
      vertex 29.5478 22.5154 8
    endloop
  endfacet
  facet normal 0 0 1
    outer loop
      vertex 29.7 -21.75 8
      vertex 28 -20 8
      vertex 29.6904 -21.946 8
    endloop
  endfacet
  facet normal 0 0 1
    outer loop
      vertex 27.7 23.75 8
      vertex 29.5478 22.5154 8
      vertex 29.4638 22.6928 8
    endloop
  endfacet
  facet normal 0 0 1
    outer loop
      vertex 29.6904 -21.946 8
      vertex 28 -20 8
      vertex 29.6616 -22.1402 8
    endloop
  endfacet
  facet normal 0 0 1
    outer loop
      vertex 27.7 23.75 8
      vertex 29.4638 22.6928 8
      vertex 29.3629 22.8611 8
    endloop
  endfacet
  facet normal 0 0 1
    outer loop
      vertex 29.6616 -22.1402 8
      vertex 28 -20 8
      vertex 29.6139 -22.3306 8
    endloop
  endfacet
  facet normal 0 0 1
    outer loop
      vertex 27.7 23.75 8
      vertex 29.3629 22.8611 8
      vertex 29.246 23.0188 8
    endloop
  endfacet
  facet normal 0 0 1
    outer loop
      vertex 29.6139 -22.3306 8
      vertex 28 -20 8
      vertex 29.5478 -22.5154 8
    endloop
  endfacet
  facet normal 0 0 1
    outer loop
      vertex 27.7 23.75 8
      vertex 29.246 23.0188 8
      vertex 29.1142 23.1642 8
    endloop
  endfacet
  facet normal 0 0 1
    outer loop
      vertex 29.5478 -22.5154 8
      vertex 28 -20 8
      vertex 29.4638 -22.6928 8
    endloop
  endfacet
  facet normal 0 0 1
    outer loop
      vertex 27.7 23.75 8
      vertex 29.1142 23.1642 8
      vertex 28.9688 23.296 8
    endloop
  endfacet
  facet normal 0 0 1
    outer loop
      vertex 29.4638 -22.6928 8
      vertex 28 -20 8
      vertex 29.3629 -22.8611 8
    endloop
  endfacet
  facet normal 0 0 1
    outer loop
      vertex 27.7 23.75 8
      vertex 28.9688 23.296 8
      vertex 28.8111 23.4129 8
    endloop
  endfacet
  facet normal 0 0 1
    outer loop
      vertex 29.3629 -22.8611 8
      vertex 28 -20 8
      vertex 29.246 -23.0188 8
    endloop
  endfacet
  facet normal 0 0 1
    outer loop
      vertex 27.7 23.75 8
      vertex 28.8111 23.4129 8
      vertex 28.6428 23.5138 8
    endloop
  endfacet
  facet normal 0 0 1
    outer loop
      vertex 29.7 21.75 8
      vertex 28 11 8
      vertex 28 -8 8
    endloop
  endfacet
  facet normal 0 0 1
    outer loop
      vertex 27.7 23.75 8
      vertex 28.6428 23.5138 8
      vertex 28.4654 23.5978 8
    endloop
  endfacet
  facet normal 0 0 1
    outer loop
      vertex 29.246 -23.0188 8
      vertex 28 -20 8
      vertex 29.1142 -23.1642 8
    endloop
  endfacet
  facet normal 0 0 1
    outer loop
      vertex 27.7 23.75 8
      vertex 28.4654 23.5978 8
      vertex 28.2806 23.6639 8
    endloop
  endfacet
  facet normal 0 0 1
    outer loop
      vertex 29.1142 -23.1642 8
      vertex 28 -20 8
      vertex 28.9688 -23.296 8
    endloop
  endfacet
  facet normal 0 0 1
    outer loop
      vertex 27.7 23.75 8
      vertex 28.2806 23.6639 8
      vertex 28.0902 23.7116 8
    endloop
  endfacet
  facet normal 0 0 1
    outer loop
      vertex 28.9688 -23.296 8
      vertex 28 -20 8
      vertex 28.8111 -23.4129 8
    endloop
  endfacet
  facet normal 0 0 1
    outer loop
      vertex 28.8111 -23.4129 8
      vertex 28 -20 8
      vertex 28.6428 -23.5138 8
    endloop
  endfacet
  facet normal 0 0 1
    outer loop
      vertex 27.7 23.75 8
      vertex 28.0902 23.7116 8
      vertex 27.896 23.7404 8
    endloop
  endfacet
  facet normal 0 0 1
    outer loop
      vertex 29.7 21.75 8
      vertex 27.7 23.75 8
      vertex 28 11 8
    endloop
  endfacet
  facet normal 0 0 1
    outer loop
      vertex 27.7 23.75 8
      vertex 17 11 8
      vertex 28 11 8
    endloop
  endfacet
  facet normal 0 0 1
    outer loop
      vertex 15.05 -10.25 8
      vertex 17 11 8
      vertex 15.05 21.75 8
    endloop
  endfacet
  facet normal 0 0 1
    outer loop
      vertex 27.7 23.75 8
      vertex 15.05 21.75 8
      vertex 17 11 8
    endloop
  endfacet
  facet normal -0 0 1
    outer loop
      vertex 11.65 23.75 8
      vertex 15.05 21.75 8
      vertex 27.7 23.75 8
    endloop
  endfacet
  facet normal 0 0 1
    outer loop
      vertex 15.05 21.75 8
      vertex 11.65 23.75 8
      vertex 11.65 21.75 8
    endloop
  endfacet
  facet normal 0 0 1
    outer loop
      vertex 28.6428 -23.5138 8
      vertex 28 -20 8
      vertex 28.4654 -23.5978 8
    endloop
  endfacet
  facet normal 0 0 1
    outer loop
      vertex 28.4654 -23.5978 8
      vertex 28 -20 8
      vertex 28.2806 -23.6639 8
    endloop
  endfacet
  facet normal 0 0 1
    outer loop
      vertex 28.2806 -23.6639 8
      vertex 28 -20 8
      vertex 28.0902 -23.7116 8
    endloop
  endfacet
  facet normal 0 0 1
    outer loop
      vertex 28 -20 8
      vertex 27.896 -23.7404 8
      vertex 28.0902 -23.7116 8
    endloop
  endfacet
  facet normal 0 0 1
    outer loop
      vertex 28 -20 8
      vertex 27.7 -23.75 8
      vertex 27.896 -23.7404 8
    endloop
  endfacet
  facet normal 0 0 1
    outer loop
      vertex 17 -21.8 8
      vertex 28 -20 8
      vertex 17 -20 8
    endloop
  endfacet
  facet normal 0 0 1
    outer loop
      vertex 28 -20 8
      vertex 17 -21.8 8
      vertex 27.7 -23.75 8
    endloop
  endfacet
  facet normal -0 0 1
    outer loop
      vertex 3 -21.8 8
      vertex 27.7 -23.75 8
      vertex 17 -21.8 8
    endloop
  endfacet
  facet normal 0 0 1
    outer loop
      vertex -8 -18.6 8
      vertex -9.3 -21.75 8
      vertex -8 -20 8
    endloop
  endfacet
  facet normal -0 0 1
    outer loop
      vertex -9.3 -21.75 8
      vertex 3 -21.8 8
      vertex -8 -20 8
    endloop
  endfacet
  facet normal 0 0 1
    outer loop
      vertex -27.7 -23.75 8
      vertex 3 -21.8 8
      vertex -9.3 -21.75 8
    endloop
  endfacet
  facet normal 0 0 1
    outer loop
      vertex -27.7 -23.75 8
      vertex -9.3 -21.75 8
      vertex -27.7 -21.75 8
    endloop
  endfacet
  facet normal 0 0 1
    outer loop
      vertex 3 -21.8 8
      vertex -27.7 -23.75 8
      vertex 27.7 -23.75 8
    endloop
  endfacet
  facet normal 0 0 1
    outer loop
      vertex -4.35 23.75 8
      vertex -7.35 21.75 8
      vertex -4.35 21.75 8
    endloop
  endfacet
  facet normal -0 0 1
    outer loop
      vertex -9.3 21.75 8
      vertex -7.35 -10.25 8
      vertex -7.35 21.75 8
    endloop
  endfacet
  facet normal 0 0 1
    outer loop
      vertex -7.35 -10.25 8
      vertex -9.3 -21.75 8
      vertex -8 -18.6 8
    endloop
  endfacet
  facet normal 0 0 1
    outer loop
      vertex -9.3 -21.75 8
      vertex -7.35 -10.25 8
      vertex -9.3 21.75 8
    endloop
  endfacet
  facet normal 0 0 1
    outer loop
      vertex -4.35 23.75 8
      vertex -9.3 21.75 8
      vertex -7.35 21.75 8
    endloop
  endfacet
  facet normal -0 0 1
    outer loop
      vertex -14.7 23.75 8
      vertex -9.3 21.75 8
      vertex -4.35 23.75 8
    endloop
  endfacet
  facet normal 0 0 1
    outer loop
      vertex -9.3 21.75 8
      vertex -14.7 23.75 8
      vertex -14.7 21.75 8
    endloop
  endfacet
  facet normal -0 0 1
    outer loop
      vertex -27.7 23.75 8
      vertex -22.7 21.75 8
      vertex -22.7 23.75 8
    endloop
  endfacet
  facet normal 0 0 1
    outer loop
      vertex -27.7 23.75 8
      vertex -27.7 21.75 8
      vertex -22.7 21.75 8
    endloop
  endfacet
  facet normal -0 0 1
    outer loop
      vertex -27.896 23.7404 8
      vertex -27.7 21.75 8
      vertex -27.7 23.75 8
    endloop
  endfacet
  facet normal 0 0 1
    outer loop
      vertex -27.7 21.75 8
      vertex -29.7 21.75 8
      vertex -27.7 -21.75 8
    endloop
  endfacet
  facet normal -0 0 1
    outer loop
      vertex -28.0902 23.7116 8
      vertex -27.7 21.75 8
      vertex -27.896 23.7404 8
    endloop
  endfacet
  facet normal 0 0 1
    outer loop
      vertex -29.7 -21.75 8
      vertex -27.7 -21.75 8
      vertex -29.7 21.75 8
    endloop
  endfacet
  facet normal -0 0 1
    outer loop
      vertex -28.2806 23.6639 8
      vertex -27.7 21.75 8
      vertex -28.0902 23.7116 8
    endloop
  endfacet
  facet normal 0 -0 1
    outer loop
      vertex -29.6904 -21.946 8
      vertex -27.7 -21.75 8
      vertex -29.7 -21.75 8
    endloop
  endfacet
  facet normal -0 0 1
    outer loop
      vertex -28.4654 23.5978 8
      vertex -27.7 21.75 8
      vertex -28.2806 23.6639 8
    endloop
  endfacet
  facet normal 0 0 1
    outer loop
      vertex -27.7 -21.75 8
      vertex -27.896 -23.7404 8
      vertex -27.7 -23.75 8
    endloop
  endfacet
  facet normal -0 0 1
    outer loop
      vertex -28.6428 23.5138 8
      vertex -27.7 21.75 8
      vertex -28.4654 23.5978 8
    endloop
  endfacet
  facet normal 0 0 1
    outer loop
      vertex -27.7 -21.75 8
      vertex -28.0902 -23.7116 8
      vertex -27.896 -23.7404 8
    endloop
  endfacet
  facet normal -0 0 1
    outer loop
      vertex -28.8111 23.4129 8
      vertex -27.7 21.75 8
      vertex -28.6428 23.5138 8
    endloop
  endfacet
  facet normal 0 0 1
    outer loop
      vertex -27.7 -21.75 8
      vertex -28.2806 -23.6639 8
      vertex -28.0902 -23.7116 8
    endloop
  endfacet
  facet normal -0 0 1
    outer loop
      vertex -28.9688 23.296 8
      vertex -27.7 21.75 8
      vertex -28.8111 23.4129 8
    endloop
  endfacet
  facet normal 0 0 1
    outer loop
      vertex -27.7 -21.75 8
      vertex -28.4654 -23.5978 8
      vertex -28.2806 -23.6639 8
    endloop
  endfacet
  facet normal -0 0 1
    outer loop
      vertex -29.1142 23.1642 8
      vertex -27.7 21.75 8
      vertex -28.9688 23.296 8
    endloop
  endfacet
  facet normal 0 0 1
    outer loop
      vertex -27.7 -21.75 8
      vertex -28.6428 -23.5138 8
      vertex -28.4654 -23.5978 8
    endloop
  endfacet
  facet normal -0 0 1
    outer loop
      vertex -29.246 23.0188 8
      vertex -27.7 21.75 8
      vertex -29.1142 23.1642 8
    endloop
  endfacet
  facet normal 0 0 1
    outer loop
      vertex -27.7 -21.75 8
      vertex -28.8111 -23.4129 8
      vertex -28.6428 -23.5138 8
    endloop
  endfacet
  facet normal -0 0 1
    outer loop
      vertex -29.3629 22.8611 8
      vertex -27.7 21.75 8
      vertex -29.246 23.0188 8
    endloop
  endfacet
  facet normal 0 0 1
    outer loop
      vertex -27.7 -21.75 8
      vertex -28.9688 -23.296 8
      vertex -28.8111 -23.4129 8
    endloop
  endfacet
  facet normal -0 0 1
    outer loop
      vertex -29.4638 22.6928 8
      vertex -27.7 21.75 8
      vertex -29.3629 22.8611 8
    endloop
  endfacet
  facet normal 0 0 1
    outer loop
      vertex -27.7 -21.75 8
      vertex -29.1142 -23.1642 8
      vertex -28.9688 -23.296 8
    endloop
  endfacet
  facet normal -0 0 1
    outer loop
      vertex -29.5478 22.5154 8
      vertex -27.7 21.75 8
      vertex -29.4638 22.6928 8
    endloop
  endfacet
  facet normal 0 0 1
    outer loop
      vertex -27.7 -21.75 8
      vertex -29.246 -23.0188 8
      vertex -29.1142 -23.1642 8
    endloop
  endfacet
  facet normal -0 0 1
    outer loop
      vertex -29.6139 22.3306 8
      vertex -27.7 21.75 8
      vertex -29.5478 22.5154 8
    endloop
  endfacet
  facet normal 0 0 1
    outer loop
      vertex -27.7 -21.75 8
      vertex -29.3629 -22.8611 8
      vertex -29.246 -23.0188 8
    endloop
  endfacet
  facet normal -0 0 1
    outer loop
      vertex -29.6616 22.1402 8
      vertex -27.7 21.75 8
      vertex -29.6139 22.3306 8
    endloop
  endfacet
  facet normal 0 0 1
    outer loop
      vertex -27.7 -21.75 8
      vertex -29.4638 -22.6928 8
      vertex -29.3629 -22.8611 8
    endloop
  endfacet
  facet normal -0 0 1
    outer loop
      vertex -29.6904 21.946 8
      vertex -27.7 21.75 8
      vertex -29.6616 22.1402 8
    endloop
  endfacet
  facet normal 0 0 1
    outer loop
      vertex -27.7 -21.75 8
      vertex -29.5478 -22.5154 8
      vertex -29.4638 -22.6928 8
    endloop
  endfacet
  facet normal 0 0 1
    outer loop
      vertex -27.7 21.75 8
      vertex -29.6904 21.946 8
      vertex -29.7 21.75 8
    endloop
  endfacet
  facet normal 0 0 1
    outer loop
      vertex -27.7 -21.75 8
      vertex -29.6139 -22.3306 8
      vertex -29.5478 -22.5154 8
    endloop
  endfacet
  facet normal 0 0 1
    outer loop
      vertex -27.7 -21.75 8
      vertex -29.6616 -22.1402 8
      vertex -29.6139 -22.3306 8
    endloop
  endfacet
  facet normal 0 0 1
    outer loop
      vertex -27.7 -21.75 8
      vertex -29.6904 -21.946 8
      vertex -29.6616 -22.1402 8
    endloop
  endfacet
  facet normal 0 0 1
    outer loop
      vertex 3 -20 8
      vertex -8 -20 8
      vertex 3 -21.8 8
    endloop
  endfacet
  facet normal -0.989178 -0.146721 0
    outer loop
      vertex -29.6616 -22.1402 0
      vertex -29.6904 -21.946 8
      vertex -29.6904 -21.946 0
    endloop
  endfacet
  facet normal -0.989178 -0.146721 0
    outer loop
      vertex -29.6904 -21.946 8
      vertex -29.6616 -22.1402 0
      vertex -29.6616 -22.1402 8
    endloop
  endfacet
  facet normal 0 1 0
    outer loop
      vertex 27.7 23.75 8
      vertex 11.65 23.75 2
      vertex 11.65 23.75 8
    endloop
  endfacet
  facet normal 0 1 0
    outer loop
      vertex 11.65 23.75 2
      vertex 27.7 23.75 0
      vertex -4.35 23.75 2
    endloop
  endfacet
  facet normal 0 1 -0
    outer loop
      vertex 27.7 23.75 0
      vertex 11.65 23.75 2
      vertex 27.7 23.75 8
    endloop
  endfacet
  facet normal 0 1 0
    outer loop
      vertex -4.35 23.75 8
      vertex -14.7 23.75 4.5
      vertex -14.7 23.75 8
    endloop
  endfacet
  facet normal 0 1 0
    outer loop
      vertex -27.7 23.75 0
      vertex -14.7 23.75 4.5
      vertex -4.35 23.75 2
    endloop
  endfacet
  facet normal 0 1 -0
    outer loop
      vertex -4.35 23.75 2
      vertex -14.7 23.75 4.5
      vertex -4.35 23.75 8
    endloop
  endfacet
  facet normal 0 1 -0
    outer loop
      vertex -22.7 23.75 4.5
      vertex -27.7 23.75 8
      vertex -22.7 23.75 8
    endloop
  endfacet
  facet normal 0 1 0
    outer loop
      vertex -22.7 23.75 4.5
      vertex -27.7 23.75 0
      vertex -27.7 23.75 8
    endloop
  endfacet
  facet normal 0 1 0
    outer loop
      vertex -14.7 23.75 4.5
      vertex -27.7 23.75 0
      vertex -22.7 23.75 4.5
    endloop
  endfacet
  facet normal 0 1 0
    outer loop
      vertex -27.7 23.75 0
      vertex -4.35 23.75 2
      vertex 27.7 23.75 0
    endloop
  endfacet
  facet normal -0.941545 0.336887 0
    outer loop
      vertex -29.6139 22.3306 0
      vertex -29.5478 22.5154 8
      vertex -29.5478 22.5154 0
    endloop
  endfacet
  facet normal -0.941545 0.336887 0
    outer loop
      vertex -29.5478 22.5154 8
      vertex -29.6139 22.3306 0
      vertex -29.6139 22.3306 8
    endloop
  endfacet
  facet normal 0.998795 0.0490758 0
    outer loop
      vertex 29.7 21.75 8
      vertex 29.6904 21.946 0
      vertex 29.6904 21.946 8
    endloop
  endfacet
  facet normal 0.998795 0.0490758 0
    outer loop
      vertex 29.6904 21.946 0
      vertex 29.7 21.75 8
      vertex 29.7 21.75 0
    endloop
  endfacet
  facet normal 0 -1 0
    outer loop
      vertex -27.7 -23.75 0
      vertex 27.7 -23.75 8
      vertex -27.7 -23.75 8
    endloop
  endfacet
  facet normal 0 -1 -0
    outer loop
      vertex 27.7 -23.75 8
      vertex -27.7 -23.75 0
      vertex 27.7 -23.75 0
    endloop
  endfacet
  facet normal 0.5957 -0.803207 0
    outer loop
      vertex 28.8111 -23.4129 0
      vertex 28.9688 -23.296 8
      vertex 28.8111 -23.4129 8
    endloop
  endfacet
  facet normal 0.5957 -0.803207 0
    outer loop
      vertex 28.9688 -23.296 8
      vertex 28.8111 -23.4129 0
      vertex 28.9688 -23.296 0
    endloop
  endfacet
  facet normal 0.857728 -0.514104 0
    outer loop
      vertex 29.3629 -22.8611 8
      vertex 29.4638 -22.6928 0
      vertex 29.4638 -22.6928 8
    endloop
  endfacet
  facet normal 0.857728 -0.514104 0
    outer loop
      vertex 29.4638 -22.6928 0
      vertex 29.3629 -22.8611 8
      vertex 29.3629 -22.8611 0
    endloop
  endfacet
  facet normal 0.0490758 0.998795 -0
    outer loop
      vertex 27.896 23.7404 0
      vertex 27.7 23.75 8
      vertex 27.896 23.7404 8
    endloop
  endfacet
  facet normal 0.0490758 0.998795 0
    outer loop
      vertex 27.7 23.75 8
      vertex 27.896 23.7404 0
      vertex 27.7 23.75 0
    endloop
  endfacet
  facet normal -0.242986 0.97003 0
    outer loop
      vertex -28.0902 23.7116 0
      vertex -28.2806 23.6639 8
      vertex -28.0902 23.7116 8
    endloop
  endfacet
  facet normal -0.242986 0.97003 0
    outer loop
      vertex -28.2806 23.6639 8
      vertex -28.0902 23.7116 0
      vertex -28.2806 23.6639 0
    endloop
  endfacet
  facet normal -0.97003 0.242986 0
    outer loop
      vertex -29.6616 22.1402 0
      vertex -29.6139 22.3306 8
      vertex -29.6139 22.3306 0
    endloop
  endfacet
  facet normal -0.97003 0.242986 0
    outer loop
      vertex -29.6139 22.3306 8
      vertex -29.6616 22.1402 0
      vertex -29.6616 22.1402 8
    endloop
  endfacet
  facet normal -0.903988 0.427558 0
    outer loop
      vertex -29.5478 22.5154 0
      vertex -29.4638 22.6928 8
      vertex -29.4638 22.6928 0
    endloop
  endfacet
  facet normal -0.903988 0.427558 0
    outer loop
      vertex -29.4638 22.6928 8
      vertex -29.5478 22.5154 0
      vertex -29.5478 22.5154 8
    endloop
  endfacet
  facet normal -0.740944 0.671567 0
    outer loop
      vertex -29.246 23.0188 0
      vertex -29.1142 23.1642 8
      vertex -29.1142 23.1642 0
    endloop
  endfacet
  facet normal -0.740944 0.671567 0
    outer loop
      vertex -29.1142 23.1642 8
      vertex -29.246 23.0188 0
      vertex -29.246 23.0188 8
    endloop
  endfacet
  facet normal 0.989178 0.146721 0
    outer loop
      vertex 29.6904 21.946 8
      vertex 29.6616 22.1402 0
      vertex 29.6616 22.1402 8
    endloop
  endfacet
  facet normal 0.989178 0.146721 0
    outer loop
      vertex 29.6616 22.1402 0
      vertex 29.6904 21.946 8
      vertex 29.6904 21.946 0
    endloop
  endfacet
  facet normal -0.242986 -0.97003 0
    outer loop
      vertex -28.2806 -23.6639 0
      vertex -28.0902 -23.7116 8
      vertex -28.2806 -23.6639 8
    endloop
  endfacet
  facet normal -0.242986 -0.97003 -0
    outer loop
      vertex -28.0902 -23.7116 8
      vertex -28.2806 -23.6639 0
      vertex -28.0902 -23.7116 0
    endloop
  endfacet
  facet normal 0.803212 -0.595694 0
    outer loop
      vertex 29.246 -23.0188 8
      vertex 29.3629 -22.8611 0
      vertex 29.3629 -22.8611 8
    endloop
  endfacet
  facet normal 0.803212 -0.595694 0
    outer loop
      vertex 29.3629 -22.8611 0
      vertex 29.246 -23.0188 8
      vertex 29.246 -23.0188 0
    endloop
  endfacet
  facet normal 0.97003 -0.242986 0
    outer loop
      vertex 29.6139 -22.3306 8
      vertex 29.6616 -22.1402 0
      vertex 29.6616 -22.1402 8
    endloop
  endfacet
  facet normal 0.97003 -0.242986 0
    outer loop
      vertex 29.6616 -22.1402 0
      vertex 29.6139 -22.3306 8
      vertex 29.6139 -22.3306 0
    endloop
  endfacet
  facet normal 0.514097 0.857732 -0
    outer loop
      vertex 28.8111 23.4129 0
      vertex 28.6428 23.5138 8
      vertex 28.8111 23.4129 8
    endloop
  endfacet
  facet normal 0.514097 0.857732 0
    outer loop
      vertex 28.6428 23.5138 8
      vertex 28.8111 23.4129 0
      vertex 28.6428 23.5138 0
    endloop
  endfacet
  facet normal 0.242986 0.97003 -0
    outer loop
      vertex 28.2806 23.6639 0
      vertex 28.0902 23.7116 8
      vertex 28.2806 23.6639 8
    endloop
  endfacet
  facet normal 0.242986 0.97003 0
    outer loop
      vertex 28.0902 23.7116 8
      vertex 28.2806 23.6639 0
      vertex 28.0902 23.7116 0
    endloop
  endfacet
  facet normal 0.146723 0.989178 -0
    outer loop
      vertex 28.0902 23.7116 0
      vertex 27.896 23.7404 8
      vertex 28.0902 23.7116 8
    endloop
  endfacet
  facet normal 0.146723 0.989178 0
    outer loop
      vertex 27.896 23.7404 8
      vertex 28.0902 23.7116 0
      vertex 27.896 23.7404 0
    endloop
  endfacet
  facet normal 0.903988 0.427558 0
    outer loop
      vertex 29.5478 22.5154 8
      vertex 29.4638 22.6928 0
      vertex 29.4638 22.6928 8
    endloop
  endfacet
  facet normal 0.903988 0.427558 0
    outer loop
      vertex 29.4638 22.6928 0
      vertex 29.5478 22.5154 8
      vertex 29.5478 22.5154 0
    endloop
  endfacet
  facet normal -0.0490758 0.998795 0
    outer loop
      vertex -27.7 23.75 0
      vertex -27.896 23.7404 8
      vertex -27.7 23.75 8
    endloop
  endfacet
  facet normal -0.0490758 0.998795 0
    outer loop
      vertex -27.896 23.7404 8
      vertex -27.7 23.75 0
      vertex -27.896 23.7404 0
    endloop
  endfacet
  facet normal -0.989178 0.146721 0
    outer loop
      vertex -29.6904 21.946 0
      vertex -29.6616 22.1402 8
      vertex -29.6616 22.1402 0
    endloop
  endfacet
  facet normal -0.989178 0.146721 0
    outer loop
      vertex -29.6616 22.1402 8
      vertex -29.6904 21.946 0
      vertex -29.6904 21.946 8
    endloop
  endfacet
  facet normal -0.857728 0.514104 0
    outer loop
      vertex -29.4638 22.6928 0
      vertex -29.3629 22.8611 8
      vertex -29.3629 22.8611 0
    endloop
  endfacet
  facet normal -0.857728 0.514104 0
    outer loop
      vertex -29.3629 22.8611 8
      vertex -29.4638 22.6928 0
      vertex -29.4638 22.6928 8
    endloop
  endfacet
  facet normal -0.803212 0.595694 0
    outer loop
      vertex -29.3629 22.8611 0
      vertex -29.246 23.0188 8
      vertex -29.246 23.0188 0
    endloop
  endfacet
  facet normal -0.803212 0.595694 0
    outer loop
      vertex -29.246 23.0188 8
      vertex -29.3629 22.8611 0
      vertex -29.3629 22.8611 8
    endloop
  endfacet
  facet normal 0.336884 -0.941546 0
    outer loop
      vertex 28.2806 -23.6639 0
      vertex 28.4654 -23.5978 8
      vertex 28.2806 -23.6639 8
    endloop
  endfacet
  facet normal 0.336884 -0.941546 0
    outer loop
      vertex 28.4654 -23.5978 8
      vertex 28.2806 -23.6639 0
      vertex 28.4654 -23.5978 0
    endloop
  endfacet
  facet normal 0.671562 -0.740948 0
    outer loop
      vertex 28.9688 -23.296 0
      vertex 29.1142 -23.1642 8
      vertex 28.9688 -23.296 8
    endloop
  endfacet
  facet normal 0.671562 -0.740948 0
    outer loop
      vertex 29.1142 -23.1642 8
      vertex 28.9688 -23.296 0
      vertex 29.1142 -23.1642 0
    endloop
  endfacet
  facet normal 0.989178 -0.146721 0
    outer loop
      vertex 29.6616 -22.1402 8
      vertex 29.6904 -21.946 0
      vertex 29.6904 -21.946 8
    endloop
  endfacet
  facet normal 0.989178 -0.146721 0
    outer loop
      vertex 29.6904 -21.946 0
      vertex 29.6616 -22.1402 8
      vertex 29.6616 -22.1402 0
    endloop
  endfacet
  facet normal 0.941545 -0.336887 0
    outer loop
      vertex 29.5478 -22.5154 8
      vertex 29.6139 -22.3306 0
      vertex 29.6139 -22.3306 8
    endloop
  endfacet
  facet normal 0.941545 -0.336887 0
    outer loop
      vertex 29.6139 -22.3306 0
      vertex 29.5478 -22.5154 8
      vertex 29.5478 -22.5154 0
    endloop
  endfacet
  facet normal 0.903988 -0.427558 0
    outer loop
      vertex 29.4638 -22.6928 8
      vertex 29.5478 -22.5154 0
      vertex 29.5478 -22.5154 8
    endloop
  endfacet
  facet normal 0.903988 -0.427558 0
    outer loop
      vertex 29.5478 -22.5154 0
      vertex 29.4638 -22.6928 8
      vertex 29.4638 -22.6928 0
    endloop
  endfacet
  facet normal 0.740944 0.671567 0
    outer loop
      vertex 29.246 23.0188 8
      vertex 29.1142 23.1642 0
      vertex 29.1142 23.1642 8
    endloop
  endfacet
  facet normal 0.740944 0.671567 0
    outer loop
      vertex 29.1142 23.1642 0
      vertex 29.246 23.0188 8
      vertex 29.246 23.0188 0
    endloop
  endfacet
  facet normal 0.803212 0.595694 0
    outer loop
      vertex 29.3629 22.8611 8
      vertex 29.246 23.0188 0
      vertex 29.246 23.0188 8
    endloop
  endfacet
  facet normal 0.803212 0.595694 0
    outer loop
      vertex 29.246 23.0188 0
      vertex 29.3629 22.8611 8
      vertex 29.3629 22.8611 0
    endloop
  endfacet
  facet normal 0.941545 0.336887 0
    outer loop
      vertex 29.6139 22.3306 8
      vertex 29.5478 22.5154 0
      vertex 29.5478 22.5154 8
    endloop
  endfacet
  facet normal 0.941545 0.336887 0
    outer loop
      vertex 29.5478 22.5154 0
      vertex 29.6139 22.3306 8
      vertex 29.6139 22.3306 0
    endloop
  endfacet
  facet normal -0.514097 0.857732 0
    outer loop
      vertex -28.6428 23.5138 0
      vertex -28.8111 23.4129 8
      vertex -28.6428 23.5138 8
    endloop
  endfacet
  facet normal -0.514097 0.857732 0
    outer loop
      vertex -28.8111 23.4129 8
      vertex -28.6428 23.5138 0
      vertex -28.8111 23.4129 0
    endloop
  endfacet
  facet normal -0.146723 0.989178 0
    outer loop
      vertex -27.896 23.7404 0
      vertex -28.0902 23.7116 8
      vertex -27.896 23.7404 8
    endloop
  endfacet
  facet normal -0.146723 0.989178 0
    outer loop
      vertex -28.0902 23.7116 8
      vertex -27.896 23.7404 0
      vertex -28.0902 23.7116 0
    endloop
  endfacet
  facet normal -0.671562 0.740948 0
    outer loop
      vertex -28.9688 23.296 0
      vertex -29.1142 23.1642 8
      vertex -28.9688 23.296 8
    endloop
  endfacet
  facet normal -0.671562 0.740948 0
    outer loop
      vertex -29.1142 23.1642 8
      vertex -28.9688 23.296 0
      vertex -29.1142 23.1642 0
    endloop
  endfacet
  facet normal 0.514097 -0.857732 0
    outer loop
      vertex 28.6428 -23.5138 0
      vertex 28.8111 -23.4129 8
      vertex 28.6428 -23.5138 8
    endloop
  endfacet
  facet normal 0.514097 -0.857732 0
    outer loop
      vertex 28.8111 -23.4129 8
      vertex 28.6428 -23.5138 0
      vertex 28.8111 -23.4129 0
    endloop
  endfacet
  facet normal 0.146723 -0.989178 0
    outer loop
      vertex 27.896 -23.7404 0
      vertex 28.0902 -23.7116 8
      vertex 27.896 -23.7404 8
    endloop
  endfacet
  facet normal 0.146723 -0.989178 0
    outer loop
      vertex 28.0902 -23.7116 8
      vertex 27.896 -23.7404 0
      vertex 28.0902 -23.7116 0
    endloop
  endfacet
  facet normal 0.0490758 -0.998795 0
    outer loop
      vertex 27.7 -23.75 0
      vertex 27.896 -23.7404 8
      vertex 27.7 -23.75 8
    endloop
  endfacet
  facet normal 0.0490758 -0.998795 0
    outer loop
      vertex 27.896 -23.7404 8
      vertex 27.7 -23.75 0
      vertex 27.896 -23.7404 0
    endloop
  endfacet
  facet normal 0.242986 -0.97003 0
    outer loop
      vertex 28.0902 -23.7116 0
      vertex 28.2806 -23.6639 8
      vertex 28.0902 -23.7116 8
    endloop
  endfacet
  facet normal 0.242986 -0.97003 0
    outer loop
      vertex 28.2806 -23.6639 8
      vertex 28.0902 -23.7116 0
      vertex 28.2806 -23.6639 0
    endloop
  endfacet
  facet normal -0.0490758 -0.998795 0
    outer loop
      vertex -27.896 -23.7404 0
      vertex -27.7 -23.75 8
      vertex -27.896 -23.7404 8
    endloop
  endfacet
  facet normal -0.0490758 -0.998795 -0
    outer loop
      vertex -27.7 -23.75 8
      vertex -27.896 -23.7404 0
      vertex -27.7 -23.75 0
    endloop
  endfacet
  facet normal -0.336884 -0.941546 0
    outer loop
      vertex -28.4654 -23.5978 0
      vertex -28.2806 -23.6639 8
      vertex -28.4654 -23.5978 8
    endloop
  endfacet
  facet normal -0.336884 -0.941546 -0
    outer loop
      vertex -28.2806 -23.6639 8
      vertex -28.4654 -23.5978 0
      vertex -28.2806 -23.6639 0
    endloop
  endfacet
  facet normal -0.803212 -0.595694 0
    outer loop
      vertex -29.246 -23.0188 0
      vertex -29.3629 -22.8611 8
      vertex -29.3629 -22.8611 0
    endloop
  endfacet
  facet normal -0.803212 -0.595694 0
    outer loop
      vertex -29.3629 -22.8611 8
      vertex -29.246 -23.0188 0
      vertex -29.246 -23.0188 8
    endloop
  endfacet
  facet normal 0.740944 -0.671567 0
    outer loop
      vertex 29.1142 -23.1642 8
      vertex 29.246 -23.0188 0
      vertex 29.246 -23.0188 8
    endloop
  endfacet
  facet normal 0.740944 -0.671567 0
    outer loop
      vertex 29.246 -23.0188 0
      vertex 29.1142 -23.1642 8
      vertex 29.1142 -23.1642 0
    endloop
  endfacet
  facet normal 0.5957 0.803207 -0
    outer loop
      vertex 28.9688 23.296 0
      vertex 28.8111 23.4129 8
      vertex 28.9688 23.296 8
    endloop
  endfacet
  facet normal 0.5957 0.803207 0
    outer loop
      vertex 28.8111 23.4129 8
      vertex 28.9688 23.296 0
      vertex 28.8111 23.4129 0
    endloop
  endfacet
  facet normal 0.336884 0.941546 -0
    outer loop
      vertex 28.4654 23.5978 0
      vertex 28.2806 23.6639 8
      vertex 28.4654 23.5978 8
    endloop
  endfacet
  facet normal 0.336884 0.941546 0
    outer loop
      vertex 28.2806 23.6639 8
      vertex 28.4654 23.5978 0
      vertex 28.2806 23.6639 0
    endloop
  endfacet
  facet normal 0.427562 0.903986 -0
    outer loop
      vertex 28.6428 23.5138 0
      vertex 28.4654 23.5978 8
      vertex 28.6428 23.5138 8
    endloop
  endfacet
  facet normal 0.427562 0.903986 0
    outer loop
      vertex 28.4654 23.5978 8
      vertex 28.6428 23.5138 0
      vertex 28.4654 23.5978 0
    endloop
  endfacet
  facet normal 0.857728 0.514104 0
    outer loop
      vertex 29.4638 22.6928 8
      vertex 29.3629 22.8611 0
      vertex 29.3629 22.8611 8
    endloop
  endfacet
  facet normal 0.857728 0.514104 0
    outer loop
      vertex 29.3629 22.8611 0
      vertex 29.4638 22.6928 8
      vertex 29.4638 22.6928 0
    endloop
  endfacet
  facet normal -0.336884 0.941546 0
    outer loop
      vertex -28.2806 23.6639 0
      vertex -28.4654 23.5978 8
      vertex -28.2806 23.6639 8
    endloop
  endfacet
  facet normal -0.336884 0.941546 0
    outer loop
      vertex -28.4654 23.5978 8
      vertex -28.2806 23.6639 0
      vertex -28.4654 23.5978 0
    endloop
  endfacet
  facet normal -0.427562 0.903986 0
    outer loop
      vertex -28.4654 23.5978 0
      vertex -28.6428 23.5138 8
      vertex -28.4654 23.5978 8
    endloop
  endfacet
  facet normal -0.427562 0.903986 0
    outer loop
      vertex -28.6428 23.5138 8
      vertex -28.4654 23.5978 0
      vertex -28.6428 23.5138 0
    endloop
  endfacet
  facet normal 0.427562 -0.903986 0
    outer loop
      vertex 28.4654 -23.5978 0
      vertex 28.6428 -23.5138 8
      vertex 28.4654 -23.5978 8
    endloop
  endfacet
  facet normal 0.427562 -0.903986 0
    outer loop
      vertex 28.6428 -23.5138 8
      vertex 28.4654 -23.5978 0
      vertex 28.6428 -23.5138 0
    endloop
  endfacet
  facet normal -0.146723 -0.989178 0
    outer loop
      vertex -28.0902 -23.7116 0
      vertex -27.896 -23.7404 8
      vertex -28.0902 -23.7116 8
    endloop
  endfacet
  facet normal -0.146723 -0.989178 -0
    outer loop
      vertex -27.896 -23.7404 8
      vertex -28.0902 -23.7116 0
      vertex -27.896 -23.7404 0
    endloop
  endfacet
  facet normal -0.427562 -0.903986 0
    outer loop
      vertex -28.6428 -23.5138 0
      vertex -28.4654 -23.5978 8
      vertex -28.6428 -23.5138 8
    endloop
  endfacet
  facet normal -0.427562 -0.903986 -0
    outer loop
      vertex -28.4654 -23.5978 8
      vertex -28.6428 -23.5138 0
      vertex -28.4654 -23.5978 0
    endloop
  endfacet
  facet normal -0.514097 -0.857732 0
    outer loop
      vertex -28.8111 -23.4129 0
      vertex -28.6428 -23.5138 8
      vertex -28.8111 -23.4129 8
    endloop
  endfacet
  facet normal -0.514097 -0.857732 -0
    outer loop
      vertex -28.6428 -23.5138 8
      vertex -28.8111 -23.4129 0
      vertex -28.6428 -23.5138 0
    endloop
  endfacet
  facet normal -0.740944 -0.671567 0
    outer loop
      vertex -29.1142 -23.1642 0
      vertex -29.246 -23.0188 8
      vertex -29.246 -23.0188 0
    endloop
  endfacet
  facet normal -0.740944 -0.671567 0
    outer loop
      vertex -29.246 -23.0188 8
      vertex -29.1142 -23.1642 0
      vertex -29.1142 -23.1642 8
    endloop
  endfacet
  facet normal -0.5957 -0.803207 0
    outer loop
      vertex -28.9688 -23.296 0
      vertex -28.8111 -23.4129 8
      vertex -28.9688 -23.296 8
    endloop
  endfacet
  facet normal -0.5957 -0.803207 -0
    outer loop
      vertex -28.8111 -23.4129 8
      vertex -28.9688 -23.296 0
      vertex -28.8111 -23.4129 0
    endloop
  endfacet
  facet normal -0.857728 -0.514104 0
    outer loop
      vertex -29.3629 -22.8611 0
      vertex -29.4638 -22.6928 8
      vertex -29.4638 -22.6928 0
    endloop
  endfacet
  facet normal -0.857728 -0.514104 0
    outer loop
      vertex -29.4638 -22.6928 8
      vertex -29.3629 -22.8611 0
      vertex -29.3629 -22.8611 8
    endloop
  endfacet
  facet normal -0.903988 -0.427558 0
    outer loop
      vertex -29.4638 -22.6928 0
      vertex -29.5478 -22.5154 8
      vertex -29.5478 -22.5154 0
    endloop
  endfacet
  facet normal -0.903988 -0.427558 0
    outer loop
      vertex -29.5478 -22.5154 8
      vertex -29.4638 -22.6928 0
      vertex -29.4638 -22.6928 8
    endloop
  endfacet
  facet normal -0.671562 -0.740948 0
    outer loop
      vertex -29.1142 -23.1642 0
      vertex -28.9688 -23.296 8
      vertex -29.1142 -23.1642 8
    endloop
  endfacet
  facet normal -0.671562 -0.740948 -0
    outer loop
      vertex -28.9688 -23.296 8
      vertex -29.1142 -23.1642 0
      vertex -28.9688 -23.296 0
    endloop
  endfacet
  facet normal 1 -0 0
    outer loop
      vertex -27.7 -21.75 8
      vertex -27.7 21.75 1
      vertex -27.7 21.75 8
    endloop
  endfacet
  facet normal 1 0 0
    outer loop
      vertex -27.7 21.75 1
      vertex -27.7 -21.75 8
      vertex -27.7 -21.75 1
    endloop
  endfacet
  facet normal -1 0 0
    outer loop
      vertex -9.3 -21.75 1
      vertex -9.3 21.75 8
      vertex -9.3 21.75 1
    endloop
  endfacet
  facet normal -1 -0 0
    outer loop
      vertex -9.3 21.75 8
      vertex -9.3 -21.75 1
      vertex -9.3 -21.75 8
    endloop
  endfacet
  facet normal 0 -1 0
    outer loop
      vertex -27.7 21.75 8
      vertex -22.7 21.75 4.5
      vertex -22.7 21.75 8
    endloop
  endfacet
  facet normal 0 -1 -0
    outer loop
      vertex -22.7 21.75 4.5
      vertex -27.7 21.75 1
      vertex -14.7 21.75 4.5
    endloop
  endfacet
  facet normal 0 -1 0
    outer loop
      vertex -27.7 21.75 1
      vertex -22.7 21.75 4.5
      vertex -27.7 21.75 8
    endloop
  endfacet
  facet normal 0 -1 0
    outer loop
      vertex -14.7 21.75 4.5
      vertex -9.3 21.75 8
      vertex -14.7 21.75 8
    endloop
  endfacet
  facet normal 0 -1 0
    outer loop
      vertex -14.7 21.75 4.5
      vertex -9.3 21.75 1
      vertex -9.3 21.75 8
    endloop
  endfacet
  facet normal 0 -1 0
    outer loop
      vertex -9.3 21.75 1
      vertex -14.7 21.75 4.5
      vertex -27.7 21.75 1
    endloop
  endfacet
  facet normal -0 0 1
    outer loop
      vertex -27.7 21.75 1
      vertex -9.3 -21.75 1
      vertex -9.3 21.75 1
    endloop
  endfacet
  facet normal 0 0 1
    outer loop
      vertex -9.3 -21.75 1
      vertex -27.7 21.75 1
      vertex -27.7 -21.75 1
    endloop
  endfacet
  facet normal 0 1 -0
    outer loop
      vertex -9.3 -21.75 1
      vertex -27.7 -21.75 8
      vertex -9.3 -21.75 8
    endloop
  endfacet
  facet normal 0 1 0
    outer loop
      vertex -27.7 -21.75 8
      vertex -9.3 -21.75 1
      vertex -27.7 -21.75 1
    endloop
  endfacet
  facet normal 1 -0 0
    outer loop
      vertex -22.7 21.75 8
      vertex -22.7 23.75 4.5
      vertex -22.7 23.75 8
    endloop
  endfacet
  facet normal 1 0 0
    outer loop
      vertex -22.7 23.75 4.5
      vertex -22.7 21.75 8
      vertex -22.7 21.75 4.5
    endloop
  endfacet
  facet normal -1 0 0
    outer loop
      vertex -14.7 21.75 4.5
      vertex -14.7 23.75 8
      vertex -14.7 23.75 4.5
    endloop
  endfacet
  facet normal -1 -0 0
    outer loop
      vertex -14.7 23.75 8
      vertex -14.7 21.75 4.5
      vertex -14.7 21.75 8
    endloop
  endfacet
  facet normal -0 0 1
    outer loop
      vertex -22.7 23.75 4.5
      vertex -14.7 21.75 4.5
      vertex -14.7 23.75 4.5
    endloop
  endfacet
  facet normal 0 0 1
    outer loop
      vertex -14.7 21.75 4.5
      vertex -22.7 23.75 4.5
      vertex -22.7 21.75 4.5
    endloop
  endfacet
  facet normal 1 -0 0
    outer loop
      vertex -8 -20 8
      vertex -8 -18.6 1
      vertex -8 -18.6 8
    endloop
  endfacet
  facet normal 1 0 0
    outer loop
      vertex -8 -18.6 1
      vertex -8 -20 8
      vertex -8 -20 1
    endloop
  endfacet
  facet normal -1 0 0
    outer loop
      vertex 28 -20 1
      vertex 28 -18.6 8
      vertex 28 -18.6 1
    endloop
  endfacet
  facet normal -1 -0 0
    outer loop
      vertex 28 -18.6 8
      vertex 28 -20 1
      vertex 28 -20 8
    endloop
  endfacet
  facet normal 0 0 1
    outer loop
      vertex 28 -18.6 1
      vertex 17 -20 1
      vertex 28 -20 1
    endloop
  endfacet
  facet normal 0 0 1
    outer loop
      vertex 17 -20 1
      vertex 3 -20 1
      vertex 17 -21.8 1
    endloop
  endfacet
  facet normal 0 0 1
    outer loop
      vertex 28 -18.6 1
      vertex 3 -20 1
      vertex 17 -20 1
    endloop
  endfacet
  facet normal -0 0 1
    outer loop
      vertex -8 -18.6 1
      vertex 3 -20 1
      vertex 28 -18.6 1
    endloop
  endfacet
  facet normal 0 0 1
    outer loop
      vertex 3 -20 1
      vertex -8 -18.6 1
      vertex -8 -20 1
    endloop
  endfacet
  facet normal 0 0 1
    outer loop
      vertex 17 -21.8 1
      vertex 3 -20 1
      vertex 3 -21.8 1
    endloop
  endfacet
  facet normal 0 1 -0
    outer loop
      vertex 3 -20 1
      vertex -8 -20 8
      vertex 3 -20 8
    endloop
  endfacet
  facet normal 0 1 0
    outer loop
      vertex -8 -20 8
      vertex 3 -20 1
      vertex -8 -20 1
    endloop
  endfacet
  facet normal 0 1 -0
    outer loop
      vertex 28 -20 1
      vertex 17 -20 8
      vertex 28 -20 8
    endloop
  endfacet
  facet normal 0 1 0
    outer loop
      vertex 17 -20 8
      vertex 28 -20 1
      vertex 17 -20 1
    endloop
  endfacet
  facet normal 0 -1 0
    outer loop
      vertex -8 -18.6 1
      vertex 28 -18.6 8
      vertex -8 -18.6 8
    endloop
  endfacet
  facet normal 0 -1 -0
    outer loop
      vertex 28 -18.6 8
      vertex -8 -18.6 1
      vertex 28 -18.6 1
    endloop
  endfacet
  facet normal 1 -0 0
    outer loop
      vertex 3 -21.8 8
      vertex 3 -20 1
      vertex 3 -20 8
    endloop
  endfacet
  facet normal 1 0 0
    outer loop
      vertex 3 -20 1
      vertex 3 -21.8 8
      vertex 3 -21.8 1
    endloop
  endfacet
  facet normal -1 0 0
    outer loop
      vertex 17 -21.8 1
      vertex 17 -20 8
      vertex 17 -20 1
    endloop
  endfacet
  facet normal -1 -0 0
    outer loop
      vertex 17 -20 8
      vertex 17 -21.8 1
      vertex 17 -21.8 8
    endloop
  endfacet
  facet normal 0 1 -0
    outer loop
      vertex 17 -21.8 1
      vertex 3 -21.8 8
      vertex 17 -21.8 8
    endloop
  endfacet
  facet normal 0 1 0
    outer loop
      vertex 3 -21.8 8
      vertex 17 -21.8 1
      vertex 3 -21.8 1
    endloop
  endfacet
  facet normal 1 -0 0
    outer loop
      vertex -7.35 -10.25 8
      vertex -7.35 21.75 1
      vertex -7.35 21.75 8
    endloop
  endfacet
  facet normal 1 0 0
    outer loop
      vertex -7.35 21.75 1
      vertex -7.35 -10.25 8
      vertex -7.35 -10.25 1
    endloop
  endfacet
  facet normal -1 0 0
    outer loop
      vertex 15.05 -10.25 1
      vertex 15.05 21.75 8
      vertex 15.05 21.75 1
    endloop
  endfacet
  facet normal -1 -0 0
    outer loop
      vertex 15.05 21.75 8
      vertex 15.05 -10.25 1
      vertex 15.05 -10.25 8
    endloop
  endfacet
  facet normal 0 -1 0
    outer loop
      vertex -7.35 21.75 8
      vertex -4.35 21.75 2
      vertex -4.35 21.75 8
    endloop
  endfacet
  facet normal 0 -1 -0
    outer loop
      vertex -4.35 21.75 2
      vertex -7.35 21.75 1
      vertex 11.65 21.75 2
    endloop
  endfacet
  facet normal 0 -1 0
    outer loop
      vertex -7.35 21.75 1
      vertex -4.35 21.75 2
      vertex -7.35 21.75 8
    endloop
  endfacet
  facet normal 0 -1 0
    outer loop
      vertex 11.65 21.75 2
      vertex 15.05 21.75 8
      vertex 11.65 21.75 8
    endloop
  endfacet
  facet normal 0 -1 0
    outer loop
      vertex 11.65 21.75 2
      vertex 15.05 21.75 1
      vertex 15.05 21.75 8
    endloop
  endfacet
  facet normal 0 -1 0
    outer loop
      vertex 15.05 21.75 1
      vertex 11.65 21.75 2
      vertex -7.35 21.75 1
    endloop
  endfacet
  facet normal -0 0 1
    outer loop
      vertex -7.35 21.75 1
      vertex 15.05 -10.25 1
      vertex 15.05 21.75 1
    endloop
  endfacet
  facet normal 0 0 1
    outer loop
      vertex 15.05 -10.25 1
      vertex -7.35 21.75 1
      vertex -7.35 -10.25 1
    endloop
  endfacet
  facet normal 0 1 -0
    outer loop
      vertex 15.05 -10.25 1
      vertex -7.35 -10.25 8
      vertex 15.05 -10.25 8
    endloop
  endfacet
  facet normal 0 1 0
    outer loop
      vertex -7.35 -10.25 8
      vertex 15.05 -10.25 1
      vertex -7.35 -10.25 1
    endloop
  endfacet
  facet normal 1 -0 0
    outer loop
      vertex -4.35 21.75 8
      vertex -4.35 23.75 2
      vertex -4.35 23.75 8
    endloop
  endfacet
  facet normal 1 0 0
    outer loop
      vertex -4.35 23.75 2
      vertex -4.35 21.75 8
      vertex -4.35 21.75 2
    endloop
  endfacet
  facet normal -1 0 0
    outer loop
      vertex 11.65 21.75 2
      vertex 11.65 23.75 8
      vertex 11.65 23.75 2
    endloop
  endfacet
  facet normal -1 -0 0
    outer loop
      vertex 11.65 23.75 8
      vertex 11.65 21.75 2
      vertex 11.65 21.75 8
    endloop
  endfacet
  facet normal -0 0 1
    outer loop
      vertex -4.35 23.75 2
      vertex 11.65 21.75 2
      vertex 11.65 23.75 2
    endloop
  endfacet
  facet normal 0 0 1
    outer loop
      vertex 11.65 21.75 2
      vertex -4.35 23.75 2
      vertex -4.35 21.75 2
    endloop
  endfacet
  facet normal 1 -0 0
    outer loop
      vertex 17 -8 8
      vertex 17 11 3
      vertex 17 11 8
    endloop
  endfacet
  facet normal 1 0 0
    outer loop
      vertex 17 11 3
      vertex 17 -8 8
      vertex 17 -8 3
    endloop
  endfacet
  facet normal -1 0 0
    outer loop
      vertex 28 -8 3
      vertex 28 11 8
      vertex 28 11 3
    endloop
  endfacet
  facet normal -1 -0 0
    outer loop
      vertex 28 11 8
      vertex 28 -8 3
      vertex 28 -8 8
    endloop
  endfacet
  facet normal 0 -1 0
    outer loop
      vertex 17 11 3
      vertex 28 11 8
      vertex 17 11 8
    endloop
  endfacet
  facet normal 0 -1 -0
    outer loop
      vertex 28 11 8
      vertex 17 11 3
      vertex 28 11 3
    endloop
  endfacet
  facet normal -0 0 1
    outer loop
      vertex 17 11 3
      vertex 28 -8 3
      vertex 28 11 3
    endloop
  endfacet
  facet normal 0 0 1
    outer loop
      vertex 28 -8 3
      vertex 17 11 3
      vertex 17 -8 3
    endloop
  endfacet
  facet normal 0 1 -0
    outer loop
      vertex 28 -8 3
      vertex 17 -8 8
      vertex 28 -8 8
    endloop
  endfacet
  facet normal 0 1 0
    outer loop
      vertex 17 -8 8
      vertex 28 -8 3
      vertex 17 -8 3
    endloop
  endfacet
endsolid OpenSCAD_Model
